# xmcd
#
# Track frame offsets: 
#        183
#        12093
#        24245
#        37228
#        50193
#        62455
#        75348
#        88858
#        101938
#        115550
#        128608
#        140728
#        151653
#        164650
#        178393
#        192083
#        206450
#        220383
#
# Disc length: 3122 seconds
#
# Revision: 5
# Processed by: cddbd v1.5.2PL0 Copyright (c) Steve Scherf et al.
# Submitted via: ExactAudioCopyFreeDBPlugin 1.0
#
DISCID=f80c3012
DTITLE=White, Bukka - Parchman Farm Blues - The Blues Collection 23
DYEAR=1995
DGENRE=Blues
TTITLE0=Aberdeen Mississippi blues
TTITLE1=Bukka's jitterbug swing
TTITLE2=Special stream line
TTITLE3=High fever blues
TTITLE4=District attorney blues
TTITLE5=Fixin' to die blues
TTITLE6=Black train blues
TTITLE7=Strange place blues
TTITLE8=When can I change my clothes
TTITLE9=Sleepy man blues
TTITLE10=Parchman farm blues
TTITLE11=Good Gin blues
TTITLE12=Pinebluff Arkansas
TTITLE13=Shake 'em on down
TTITLE14=The new 'Frisco train
TTITLE15=The Panama limited
TTITLE16=I am in the heavenly way
TTITLE17=Promise true and grand
EXTD=
EXTT0=
EXTT1=
EXTT2=
EXTT3=
EXTT4=
EXTT5=
EXTT6=
EXTT7=
EXTT8=
EXTT9=
EXTT10=
EXTT11=
EXTT12=
EXTT13=
EXTT14=
EXTT15=
EXTT16=
EXTT17=
PLAYORDER=
